<mxfile host="app.diagrams.net" modified="2024-02-08T18:35:37.258Z" agent="Mozilla/5.0 (Windows NT 10.0; Win64; x64) AppleWebKit/537.36 (KHTML, like Gecko) Chrome/121.0.0.0 Safari/537.36 Edg/121.0.0.0" etag="cnWdbmRQE7jPCoa3aQJb" version="23.1.1" type="github">
  <diagram name="Page-1" id="0qFEYieyhaUZkbA-zpOH">
    <mxGraphModel dx="786" dy="477" grid="1" gridSize="10" guides="1" tooltips="1" connect="1" arrows="1" fold="1" page="1" pageScale="1" pageWidth="1654" pageHeight="1169" math="0" shadow="0">
      <root>
        <mxCell id="0" />
        <mxCell id="1" parent="0" />
        <mxCell id="dsVD0NSz5-Ame5MLzFzs-1" style="edgeStyle=orthogonalEdgeStyle;rounded=0;orthogonalLoop=1;jettySize=auto;html=1;exitX=0.5;exitY=0.5;exitDx=0;exitDy=20;exitPerimeter=0;entryX=0.5;entryY=0;entryDx=0;entryDy=0;" edge="1" parent="1" source="dsVD0NSz5-Ame5MLzFzs-2" target="dsVD0NSz5-Ame5MLzFzs-3">
          <mxGeometry relative="1" as="geometry" />
        </mxCell>
        <mxCell id="dsVD0NSz5-Ame5MLzFzs-2" value="Start" style="html=1;dashed=0;whiteSpace=wrap;shape=mxgraph.dfd.start;fontSize=11;" vertex="1" parent="1">
          <mxGeometry x="220" y="110" width="140" height="40" as="geometry" />
        </mxCell>
        <mxCell id="dsVD0NSz5-Ame5MLzFzs-5" style="edgeStyle=orthogonalEdgeStyle;rounded=0;orthogonalLoop=1;jettySize=auto;html=1;exitX=0.5;exitY=1;exitDx=0;exitDy=0;" edge="1" parent="1" source="dsVD0NSz5-Ame5MLzFzs-3" target="dsVD0NSz5-Ame5MLzFzs-4">
          <mxGeometry relative="1" as="geometry" />
        </mxCell>
        <mxCell id="dsVD0NSz5-Ame5MLzFzs-3" value="Input / Selection Screen" style="shape=manualInput;whiteSpace=wrap;html=1;fontSize=11;size=13;spacingTop=7;" vertex="1" parent="1">
          <mxGeometry x="220" y="170" width="140" height="50" as="geometry" />
        </mxCell>
        <mxCell id="dsVD0NSz5-Ame5MLzFzs-64" style="edgeStyle=orthogonalEdgeStyle;rounded=0;orthogonalLoop=1;jettySize=auto;html=1;exitX=0.5;exitY=1;exitDx=0;exitDy=0;exitPerimeter=0;entryX=0.5;entryY=0;entryDx=0;entryDy=0;" edge="1" parent="1" source="dsVD0NSz5-Ame5MLzFzs-4" target="dsVD0NSz5-Ame5MLzFzs-7">
          <mxGeometry relative="1" as="geometry" />
        </mxCell>
        <mxCell id="dsVD0NSz5-Ame5MLzFzs-4" value="START-OF-SELECTION" style="html=1;outlineConnect=0;whiteSpace=wrap;fillColor=default;shape=mxgraph.archimate3.application;appType=event;archiType=rounded;gradientColor=none;fontSize=11;spacingTop=5;" vertex="1" parent="1">
          <mxGeometry x="220" y="240" width="140" height="50" as="geometry" />
        </mxCell>
        <mxCell id="dsVD0NSz5-Ame5MLzFzs-35" style="edgeStyle=orthogonalEdgeStyle;rounded=0;orthogonalLoop=1;jettySize=auto;html=1;exitX=0.5;exitY=1;exitDx=0;exitDy=0;entryX=0;entryY=0.5;entryDx=0;entryDy=0;" edge="1" parent="1" source="dsVD0NSz5-Ame5MLzFzs-6" target="dsVD0NSz5-Ame5MLzFzs-29">
          <mxGeometry relative="1" as="geometry">
            <Array as="points">
              <mxPoint x="660" y="285" />
            </Array>
          </mxGeometry>
        </mxCell>
        <mxCell id="dsVD0NSz5-Ame5MLzFzs-37" style="edgeStyle=orthogonalEdgeStyle;rounded=0;orthogonalLoop=1;jettySize=auto;html=1;exitX=0.5;exitY=1;exitDx=0;exitDy=0;entryX=0;entryY=0.5;entryDx=0;entryDy=0;" edge="1" parent="1" source="dsVD0NSz5-Ame5MLzFzs-6" target="dsVD0NSz5-Ame5MLzFzs-30">
          <mxGeometry relative="1" as="geometry" />
        </mxCell>
        <mxCell id="dsVD0NSz5-Ame5MLzFzs-38" style="edgeStyle=orthogonalEdgeStyle;rounded=0;orthogonalLoop=1;jettySize=auto;html=1;exitX=0.5;exitY=1;exitDx=0;exitDy=0;entryX=0;entryY=0.5;entryDx=0;entryDy=0;" edge="1" parent="1" source="dsVD0NSz5-Ame5MLzFzs-6" target="dsVD0NSz5-Ame5MLzFzs-31">
          <mxGeometry relative="1" as="geometry" />
        </mxCell>
        <mxCell id="dsVD0NSz5-Ame5MLzFzs-39" style="edgeStyle=orthogonalEdgeStyle;rounded=0;orthogonalLoop=1;jettySize=auto;html=1;exitX=0.5;exitY=1;exitDx=0;exitDy=0;entryX=0;entryY=0.5;entryDx=0;entryDy=0;" edge="1" parent="1" source="dsVD0NSz5-Ame5MLzFzs-6" target="dsVD0NSz5-Ame5MLzFzs-32">
          <mxGeometry relative="1" as="geometry" />
        </mxCell>
        <mxCell id="dsVD0NSz5-Ame5MLzFzs-40" style="edgeStyle=orthogonalEdgeStyle;rounded=0;orthogonalLoop=1;jettySize=auto;html=1;exitX=0.5;exitY=1;exitDx=0;exitDy=0;entryX=0;entryY=0.5;entryDx=0;entryDy=0;" edge="1" parent="1" source="dsVD0NSz5-Ame5MLzFzs-6" target="dsVD0NSz5-Ame5MLzFzs-33">
          <mxGeometry relative="1" as="geometry" />
        </mxCell>
        <mxCell id="dsVD0NSz5-Ame5MLzFzs-41" style="edgeStyle=orthogonalEdgeStyle;rounded=0;orthogonalLoop=1;jettySize=auto;html=1;exitX=0.5;exitY=1;exitDx=0;exitDy=0;entryX=0;entryY=0.5;entryDx=0;entryDy=0;" edge="1" parent="1" source="dsVD0NSz5-Ame5MLzFzs-6" target="dsVD0NSz5-Ame5MLzFzs-34">
          <mxGeometry relative="1" as="geometry" />
        </mxCell>
        <mxCell id="dsVD0NSz5-Ame5MLzFzs-6" value="&lt;font style=&quot;font-size: 11px;&quot;&gt;Call FM&lt;br&gt;ZATS_PO_GETLIST&lt;br&gt;&lt;/font&gt;" style="shape=process;whiteSpace=wrap;html=1;backgroundOutline=1;fontSize=11;size=0.041666666666666664;" vertex="1" parent="1">
          <mxGeometry x="590" y="160" width="140" height="50" as="geometry" />
        </mxCell>
        <mxCell id="dsVD0NSz5-Ame5MLzFzs-63" style="edgeStyle=orthogonalEdgeStyle;rounded=0;orthogonalLoop=1;jettySize=auto;html=1;exitX=1;exitY=0.5;exitDx=0;exitDy=0;entryX=0;entryY=0.5;entryDx=0;entryDy=0;" edge="1" parent="1" source="dsVD0NSz5-Ame5MLzFzs-7" target="dsVD0NSz5-Ame5MLzFzs-17">
          <mxGeometry relative="1" as="geometry" />
        </mxCell>
        <mxCell id="dsVD0NSz5-Ame5MLzFzs-66" style="edgeStyle=orthogonalEdgeStyle;rounded=0;orthogonalLoop=1;jettySize=auto;html=1;exitX=0.5;exitY=1;exitDx=0;exitDy=0;entryX=0.5;entryY=0;entryDx=0;entryDy=0;" edge="1" parent="1" source="dsVD0NSz5-Ame5MLzFzs-7" target="dsVD0NSz5-Ame5MLzFzs-65">
          <mxGeometry relative="1" as="geometry" />
        </mxCell>
        <mxCell id="dsVD0NSz5-Ame5MLzFzs-7" value="&lt;font style=&quot;font-size: 11px;&quot;&gt;Retrieve PO Details&lt;br&gt;&lt;/font&gt;" style="shape=process;whiteSpace=wrap;html=1;backgroundOutline=1;fontSize=11;size=0;" vertex="1" parent="1">
          <mxGeometry x="220" y="310" width="140" height="50" as="geometry" />
        </mxCell>
        <mxCell id="dsVD0NSz5-Ame5MLzFzs-28" style="edgeStyle=orthogonalEdgeStyle;rounded=0;orthogonalLoop=1;jettySize=auto;html=1;exitX=0.5;exitY=1;exitDx=0;exitDy=0;exitPerimeter=0;entryX=0.5;entryY=0;entryDx=0;entryDy=0;" edge="1" parent="1" source="dsVD0NSz5-Ame5MLzFzs-8" target="dsVD0NSz5-Ame5MLzFzs-11">
          <mxGeometry relative="1" as="geometry" />
        </mxCell>
        <mxCell id="dsVD0NSz5-Ame5MLzFzs-8" value="Process &lt;br&gt;PO Header" style="html=1;dashed=0;whiteSpace=wrap;shape=mxgraph.dfd.loop;fontSize=11;" vertex="1" parent="1">
          <mxGeometry x="460" y="260" width="140" height="50" as="geometry" />
        </mxCell>
        <mxCell id="dsVD0NSz5-Ame5MLzFzs-14" style="edgeStyle=orthogonalEdgeStyle;rounded=0;orthogonalLoop=1;jettySize=auto;html=1;exitX=0.5;exitY=1;exitDx=0;exitDy=0;entryX=0.5;entryY=0;entryDx=0;entryDy=0;" edge="1" parent="1" source="dsVD0NSz5-Ame5MLzFzs-11" target="dsVD0NSz5-Ame5MLzFzs-12">
          <mxGeometry relative="1" as="geometry" />
        </mxCell>
        <mxCell id="dsVD0NSz5-Ame5MLzFzs-11" value="Is &lt;br&gt;VENDOR initial?" style="rhombus;whiteSpace=wrap;html=1;fontSize=11;spacingTop=-7;" vertex="1" parent="1">
          <mxGeometry x="470" y="330" width="120" height="70" as="geometry" />
        </mxCell>
        <mxCell id="dsVD0NSz5-Ame5MLzFzs-80" style="edgeStyle=orthogonalEdgeStyle;rounded=0;orthogonalLoop=1;jettySize=auto;html=1;exitX=0.5;exitY=1;exitDx=0;exitDy=0;entryX=0.5;entryY=0;entryDx=0;entryDy=0;" edge="1" parent="1" source="dsVD0NSz5-Ame5MLzFzs-12">
          <mxGeometry relative="1" as="geometry">
            <mxPoint x="530" y="490" as="targetPoint" />
          </mxGeometry>
        </mxCell>
        <mxCell id="dsVD0NSz5-Ame5MLzFzs-12" value="&lt;font style=&quot;font-size: 11px;&quot;&gt;Delete PO Line Items&lt;br&gt;&lt;/font&gt;" style="shape=process;whiteSpace=wrap;html=1;backgroundOutline=1;fontSize=11;size=0;" vertex="1" parent="1">
          <mxGeometry x="460" y="420" width="140" height="50" as="geometry" />
        </mxCell>
        <mxCell id="dsVD0NSz5-Ame5MLzFzs-13" style="edgeStyle=orthogonalEdgeStyle;rounded=0;orthogonalLoop=1;jettySize=auto;html=1;exitX=1;exitY=0.5;exitDx=0;exitDy=0;entryX=1.005;entryY=0.453;entryDx=0;entryDy=0;entryPerimeter=0;" edge="1" parent="1" source="dsVD0NSz5-Ame5MLzFzs-11" target="dsVD0NSz5-Ame5MLzFzs-8">
          <mxGeometry relative="1" as="geometry">
            <Array as="points">
              <mxPoint x="630" y="365" />
              <mxPoint x="630" y="283" />
            </Array>
          </mxGeometry>
        </mxCell>
        <mxCell id="dsVD0NSz5-Ame5MLzFzs-101" value="N" style="edgeLabel;html=1;align=center;verticalAlign=middle;resizable=0;points=[];" vertex="1" connectable="0" parent="dsVD0NSz5-Ame5MLzFzs-13">
          <mxGeometry x="-0.723" relative="1" as="geometry">
            <mxPoint as="offset" />
          </mxGeometry>
        </mxCell>
        <mxCell id="dsVD0NSz5-Ame5MLzFzs-15" style="edgeStyle=orthogonalEdgeStyle;rounded=0;orthogonalLoop=1;jettySize=auto;html=1;exitX=1;exitY=0.5;exitDx=0;exitDy=0;entryX=1;entryY=0.453;entryDx=0;entryDy=0;entryPerimeter=0;" edge="1" parent="1" source="dsVD0NSz5-Ame5MLzFzs-12" target="dsVD0NSz5-Ame5MLzFzs-8">
          <mxGeometry relative="1" as="geometry">
            <Array as="points">
              <mxPoint x="630" y="445" />
              <mxPoint x="630" y="283" />
            </Array>
          </mxGeometry>
        </mxCell>
        <mxCell id="dsVD0NSz5-Ame5MLzFzs-17" value="&lt;font style=&quot;font-size: 11px;&quot;&gt;A&lt;/font&gt;" style="ellipse;whiteSpace=wrap;html=1;aspect=fixed;" vertex="1" parent="1">
          <mxGeometry x="390" y="320" width="30" height="30" as="geometry" />
        </mxCell>
        <mxCell id="dsVD0NSz5-Ame5MLzFzs-27" style="edgeStyle=orthogonalEdgeStyle;rounded=0;orthogonalLoop=1;jettySize=auto;html=1;exitX=0.5;exitY=1;exitDx=0;exitDy=0;entryX=0.5;entryY=0;entryDx=0;entryDy=0;" edge="1" parent="1" source="dsVD0NSz5-Ame5MLzFzs-20">
          <mxGeometry relative="1" as="geometry">
            <mxPoint x="280" y="340" as="targetPoint" />
          </mxGeometry>
        </mxCell>
        <mxCell id="dsVD0NSz5-Ame5MLzFzs-55" style="edgeStyle=orthogonalEdgeStyle;rounded=0;orthogonalLoop=1;jettySize=auto;html=1;exitX=1;exitY=0.5;exitDx=0;exitDy=0;entryX=0;entryY=0.5;entryDx=0;entryDy=0;" edge="1" parent="1" source="dsVD0NSz5-Ame5MLzFzs-29" target="dsVD0NSz5-Ame5MLzFzs-49">
          <mxGeometry relative="1" as="geometry" />
        </mxCell>
        <mxCell id="dsVD0NSz5-Ame5MLzFzs-103" value="Y" style="edgeLabel;html=1;align=center;verticalAlign=middle;resizable=0;points=[];" vertex="1" connectable="0" parent="dsVD0NSz5-Ame5MLzFzs-55">
          <mxGeometry x="-0.2" relative="1" as="geometry">
            <mxPoint as="offset" />
          </mxGeometry>
        </mxCell>
        <mxCell id="dsVD0NSz5-Ame5MLzFzs-29" value="Is&lt;br&gt;P_SAVEH not equal space?" style="rhombus;whiteSpace=wrap;html=1;fontSize=11;spacingTop=0;" vertex="1" parent="1">
          <mxGeometry x="700" y="250" width="120" height="70" as="geometry" />
        </mxCell>
        <mxCell id="dsVD0NSz5-Ame5MLzFzs-56" style="edgeStyle=orthogonalEdgeStyle;rounded=0;orthogonalLoop=1;jettySize=auto;html=1;exitX=1;exitY=0.5;exitDx=0;exitDy=0;entryX=0;entryY=0.5;entryDx=0;entryDy=0;" edge="1" parent="1" source="dsVD0NSz5-Ame5MLzFzs-30" target="dsVD0NSz5-Ame5MLzFzs-48">
          <mxGeometry relative="1" as="geometry" />
        </mxCell>
        <mxCell id="dsVD0NSz5-Ame5MLzFzs-104" value="Y" style="edgeLabel;html=1;align=center;verticalAlign=middle;resizable=0;points=[];" vertex="1" connectable="0" parent="dsVD0NSz5-Ame5MLzFzs-56">
          <mxGeometry x="-0.16" relative="1" as="geometry">
            <mxPoint as="offset" />
          </mxGeometry>
        </mxCell>
        <mxCell id="dsVD0NSz5-Ame5MLzFzs-30" value="Is&lt;br&gt;P_SAVEI not equal space?" style="rhombus;whiteSpace=wrap;html=1;fontSize=11;spacingTop=0;" vertex="1" parent="1">
          <mxGeometry x="700" y="330" width="120" height="70" as="geometry" />
        </mxCell>
        <mxCell id="dsVD0NSz5-Ame5MLzFzs-57" style="edgeStyle=orthogonalEdgeStyle;rounded=0;orthogonalLoop=1;jettySize=auto;html=1;exitX=1;exitY=0.5;exitDx=0;exitDy=0;entryX=0;entryY=0.5;entryDx=0;entryDy=0;" edge="1" parent="1" source="dsVD0NSz5-Ame5MLzFzs-31" target="dsVD0NSz5-Ame5MLzFzs-47">
          <mxGeometry relative="1" as="geometry" />
        </mxCell>
        <mxCell id="dsVD0NSz5-Ame5MLzFzs-105" value="Y" style="edgeLabel;html=1;align=center;verticalAlign=middle;resizable=0;points=[];" vertex="1" connectable="0" parent="dsVD0NSz5-Ame5MLzFzs-57">
          <mxGeometry x="-0.16" relative="1" as="geometry">
            <mxPoint as="offset" />
          </mxGeometry>
        </mxCell>
        <mxCell id="dsVD0NSz5-Ame5MLzFzs-31" value="Is&lt;br&gt;P_SAVES not equal space?" style="rhombus;whiteSpace=wrap;html=1;fontSize=11;spacingTop=0;" vertex="1" parent="1">
          <mxGeometry x="700" y="410" width="120" height="70" as="geometry" />
        </mxCell>
        <mxCell id="dsVD0NSz5-Ame5MLzFzs-58" style="edgeStyle=orthogonalEdgeStyle;rounded=0;orthogonalLoop=1;jettySize=auto;html=1;exitX=1;exitY=0.5;exitDx=0;exitDy=0;entryX=0;entryY=0.5;entryDx=0;entryDy=0;" edge="1" parent="1" source="dsVD0NSz5-Ame5MLzFzs-32" target="dsVD0NSz5-Ame5MLzFzs-46">
          <mxGeometry relative="1" as="geometry" />
        </mxCell>
        <mxCell id="dsVD0NSz5-Ame5MLzFzs-106" value="Y" style="edgeLabel;html=1;align=center;verticalAlign=middle;resizable=0;points=[];" vertex="1" connectable="0" parent="dsVD0NSz5-Ame5MLzFzs-58">
          <mxGeometry x="-0.16" relative="1" as="geometry">
            <mxPoint as="offset" />
          </mxGeometry>
        </mxCell>
        <mxCell id="dsVD0NSz5-Ame5MLzFzs-32" value="Is&lt;br&gt;P_SAVEO not equal space?" style="rhombus;whiteSpace=wrap;html=1;fontSize=11;spacingTop=0;" vertex="1" parent="1">
          <mxGeometry x="700" y="490" width="120" height="70" as="geometry" />
        </mxCell>
        <mxCell id="dsVD0NSz5-Ame5MLzFzs-59" style="edgeStyle=orthogonalEdgeStyle;rounded=0;orthogonalLoop=1;jettySize=auto;html=1;exitX=1;exitY=0.5;exitDx=0;exitDy=0;entryX=0;entryY=0.5;entryDx=0;entryDy=0;" edge="1" parent="1" source="dsVD0NSz5-Ame5MLzFzs-33" target="dsVD0NSz5-Ame5MLzFzs-45">
          <mxGeometry relative="1" as="geometry" />
        </mxCell>
        <mxCell id="dsVD0NSz5-Ame5MLzFzs-107" value="Y" style="edgeLabel;html=1;align=center;verticalAlign=middle;resizable=0;points=[];" vertex="1" connectable="0" parent="dsVD0NSz5-Ame5MLzFzs-59">
          <mxGeometry x="-0.2" relative="1" as="geometry">
            <mxPoint as="offset" />
          </mxGeometry>
        </mxCell>
        <mxCell id="dsVD0NSz5-Ame5MLzFzs-33" value="Is&lt;br&gt;P_SAVER not equal space?" style="rhombus;whiteSpace=wrap;html=1;fontSize=11;spacingTop=0;" vertex="1" parent="1">
          <mxGeometry x="700" y="570" width="120" height="70" as="geometry" />
        </mxCell>
        <mxCell id="dsVD0NSz5-Ame5MLzFzs-60" style="edgeStyle=orthogonalEdgeStyle;rounded=0;orthogonalLoop=1;jettySize=auto;html=1;exitX=1;exitY=0.5;exitDx=0;exitDy=0;entryX=0;entryY=0.5;entryDx=0;entryDy=0;" edge="1" parent="1" source="dsVD0NSz5-Ame5MLzFzs-34" target="dsVD0NSz5-Ame5MLzFzs-44">
          <mxGeometry relative="1" as="geometry" />
        </mxCell>
        <mxCell id="dsVD0NSz5-Ame5MLzFzs-108" value="Y" style="edgeLabel;html=1;align=center;verticalAlign=middle;resizable=0;points=[];" vertex="1" connectable="0" parent="dsVD0NSz5-Ame5MLzFzs-60">
          <mxGeometry x="-0.16" relative="1" as="geometry">
            <mxPoint as="offset" />
          </mxGeometry>
        </mxCell>
        <mxCell id="dsVD0NSz5-Ame5MLzFzs-34" value="Is&lt;br&gt;P_DISP not equal space?" style="rhombus;whiteSpace=wrap;html=1;fontSize=11;spacingTop=0;" vertex="1" parent="1">
          <mxGeometry x="700" y="650" width="120" height="70" as="geometry" />
        </mxCell>
        <mxCell id="dsVD0NSz5-Ame5MLzFzs-36" style="edgeStyle=orthogonalEdgeStyle;rounded=0;orthogonalLoop=1;jettySize=auto;html=1;exitX=0.5;exitY=1;exitDx=0;exitDy=0;entryX=0.5;entryY=0;entryDx=0;entryDy=0;entryPerimeter=0;" edge="1" parent="1" source="dsVD0NSz5-Ame5MLzFzs-6" target="dsVD0NSz5-Ame5MLzFzs-8">
          <mxGeometry relative="1" as="geometry" />
        </mxCell>
        <mxCell id="dsVD0NSz5-Ame5MLzFzs-44" value="&lt;font style=&quot;font-size: 11px;&quot;&gt;Display Result &lt;br&gt;on Screen&lt;br&gt;&lt;/font&gt;" style="shape=process;whiteSpace=wrap;html=1;backgroundOutline=1;fontSize=11;size=0;" vertex="1" parent="1">
          <mxGeometry x="870" y="660" width="140" height="50" as="geometry" />
        </mxCell>
        <mxCell id="dsVD0NSz5-Ame5MLzFzs-45" value="&lt;font style=&quot;font-size: 11px;&quot;&gt;Download routing &lt;br&gt;for PO Item&lt;br&gt;&lt;/font&gt;" style="shape=process;whiteSpace=wrap;html=1;backgroundOutline=1;fontSize=11;size=0;" vertex="1" parent="1">
          <mxGeometry x="870" y="580" width="140" height="50" as="geometry" />
        </mxCell>
        <mxCell id="dsVD0NSz5-Ame5MLzFzs-46" value="&lt;font style=&quot;font-size: 11px;&quot;&gt;Download PO &lt;br&gt;Item Overall View&lt;br&gt;&lt;/font&gt;" style="shape=process;whiteSpace=wrap;html=1;backgroundOutline=1;fontSize=11;size=0;" vertex="1" parent="1">
          <mxGeometry x="870" y="500" width="140" height="50" as="geometry" />
        </mxCell>
        <mxCell id="dsVD0NSz5-Ame5MLzFzs-47" value="&lt;font style=&quot;font-size: 11px;&quot;&gt;Download PO &lt;br&gt;Item Schedule&lt;br&gt;&lt;/font&gt;" style="shape=process;whiteSpace=wrap;html=1;backgroundOutline=1;fontSize=11;size=0;" vertex="1" parent="1">
          <mxGeometry x="870" y="420" width="140" height="50" as="geometry" />
        </mxCell>
        <mxCell id="dsVD0NSz5-Ame5MLzFzs-48" value="&lt;font style=&quot;font-size: 11px;&quot;&gt;Download PO &lt;br&gt;Item&amp;nbsp;&lt;br&gt;&lt;/font&gt;" style="shape=process;whiteSpace=wrap;html=1;backgroundOutline=1;fontSize=11;size=0;" vertex="1" parent="1">
          <mxGeometry x="870" y="340" width="140" height="50" as="geometry" />
        </mxCell>
        <mxCell id="dsVD0NSz5-Ame5MLzFzs-49" value="&lt;font style=&quot;font-size: 11px;&quot;&gt;Download PO &lt;br&gt;Header&lt;br&gt;&lt;/font&gt;" style="shape=process;whiteSpace=wrap;html=1;backgroundOutline=1;fontSize=11;size=0;" vertex="1" parent="1">
          <mxGeometry x="870" y="260" width="140" height="50" as="geometry" />
        </mxCell>
        <mxCell id="dsVD0NSz5-Ame5MLzFzs-62" style="edgeStyle=orthogonalEdgeStyle;rounded=0;orthogonalLoop=1;jettySize=auto;html=1;exitX=0.5;exitY=1;exitDx=0;exitDy=0;entryX=0.5;entryY=0;entryDx=0;entryDy=0;" edge="1" parent="1" source="dsVD0NSz5-Ame5MLzFzs-61" target="dsVD0NSz5-Ame5MLzFzs-6">
          <mxGeometry relative="1" as="geometry" />
        </mxCell>
        <mxCell id="dsVD0NSz5-Ame5MLzFzs-61" value="&lt;font style=&quot;font-size: 11px;&quot;&gt;A&lt;/font&gt;" style="ellipse;whiteSpace=wrap;html=1;aspect=fixed;" vertex="1" parent="1">
          <mxGeometry x="645" y="110" width="30" height="30" as="geometry" />
        </mxCell>
        <mxCell id="dsVD0NSz5-Ame5MLzFzs-68" style="edgeStyle=orthogonalEdgeStyle;rounded=0;orthogonalLoop=1;jettySize=auto;html=1;exitX=0.5;exitY=1;exitDx=0;exitDy=0;entryX=0.5;entryY=0;entryDx=0;entryDy=0;" edge="1" parent="1" source="dsVD0NSz5-Ame5MLzFzs-65" target="dsVD0NSz5-Ame5MLzFzs-67">
          <mxGeometry relative="1" as="geometry" />
        </mxCell>
        <mxCell id="dsVD0NSz5-Ame5MLzFzs-65" value="&lt;font style=&quot;font-size: 11px;&quot;&gt;Set File Properties&amp;nbsp;&lt;br&gt;(DBF or DAT)&lt;br&gt;&lt;/font&gt;" style="shape=process;whiteSpace=wrap;html=1;backgroundOutline=1;fontSize=11;size=0;" vertex="1" parent="1">
          <mxGeometry x="220" y="380" width="140" height="50" as="geometry" />
        </mxCell>
        <mxCell id="dsVD0NSz5-Ame5MLzFzs-70" style="edgeStyle=orthogonalEdgeStyle;rounded=0;orthogonalLoop=1;jettySize=auto;html=1;exitX=0.5;exitY=1;exitDx=0;exitDy=0;entryX=0.5;entryY=0;entryDx=0;entryDy=0;" edge="1" parent="1" source="dsVD0NSz5-Ame5MLzFzs-67" target="dsVD0NSz5-Ame5MLzFzs-69">
          <mxGeometry relative="1" as="geometry" />
        </mxCell>
        <mxCell id="dsVD0NSz5-Ame5MLzFzs-67" value="Is &lt;br&gt;SY-UNAME &lt;br&gt;contains&lt;br&gt;LFBATCH &lt;br&gt;string?" style="rhombus;whiteSpace=wrap;html=1;fontSize=11;spacingTop=-5;" vertex="1" parent="1">
          <mxGeometry x="220" y="450" width="140" height="90" as="geometry" />
        </mxCell>
        <mxCell id="dsVD0NSz5-Ame5MLzFzs-69" value="&lt;font style=&quot;font-size: 11px;&quot;&gt;Call SYST_LOGOFF&lt;br&gt;&lt;/font&gt;" style="shape=process;whiteSpace=wrap;html=1;backgroundOutline=1;fontSize=11;size=0.041666666666666664;" vertex="1" parent="1">
          <mxGeometry x="220" y="560" width="140" height="50" as="geometry" />
        </mxCell>
        <mxCell id="dsVD0NSz5-Ame5MLzFzs-71" value="End" style="html=1;dashed=0;whiteSpace=wrap;shape=mxgraph.dfd.start;fontSize=11;" vertex="1" parent="1">
          <mxGeometry x="220" y="630" width="140" height="40" as="geometry" />
        </mxCell>
        <mxCell id="dsVD0NSz5-Ame5MLzFzs-72" style="edgeStyle=orthogonalEdgeStyle;rounded=0;orthogonalLoop=1;jettySize=auto;html=1;exitX=0.5;exitY=1;exitDx=0;exitDy=0;entryX=0.5;entryY=0.5;entryDx=0;entryDy=-20;entryPerimeter=0;" edge="1" parent="1" source="dsVD0NSz5-Ame5MLzFzs-69" target="dsVD0NSz5-Ame5MLzFzs-71">
          <mxGeometry relative="1" as="geometry" />
        </mxCell>
        <mxCell id="dsVD0NSz5-Ame5MLzFzs-73" style="edgeStyle=orthogonalEdgeStyle;rounded=0;orthogonalLoop=1;jettySize=auto;html=1;exitX=1;exitY=0.5;exitDx=0;exitDy=0;entryX=1;entryY=0.5;entryDx=0;entryDy=0;entryPerimeter=0;" edge="1" parent="1" source="dsVD0NSz5-Ame5MLzFzs-67" target="dsVD0NSz5-Ame5MLzFzs-71">
          <mxGeometry relative="1" as="geometry">
            <Array as="points">
              <mxPoint x="390" y="495" />
              <mxPoint x="390" y="650" />
            </Array>
          </mxGeometry>
        </mxCell>
        <mxCell id="dsVD0NSz5-Ame5MLzFzs-74" value="N" style="edgeLabel;html=1;align=center;verticalAlign=middle;resizable=0;points=[];" vertex="1" connectable="0" parent="dsVD0NSz5-Ame5MLzFzs-73">
          <mxGeometry x="-0.8791" relative="1" as="geometry">
            <mxPoint as="offset" />
          </mxGeometry>
        </mxCell>
        <mxCell id="dsVD0NSz5-Ame5MLzFzs-75" value="Y" style="text;html=1;align=center;verticalAlign=middle;resizable=0;points=[];autosize=1;strokeColor=none;fillColor=none;fontSize=11;" vertex="1" parent="1">
          <mxGeometry x="287" y="534" width="30" height="30" as="geometry" />
        </mxCell>
        <mxCell id="dsVD0NSz5-Ame5MLzFzs-91" value="Table" style="shape=table;startSize=30;container=1;collapsible=0;childLayout=tableLayout;fixedRows=1;rowLines=0;fontStyle=0;strokeColor=default;fontSize=11;" vertex="1" parent="1">
          <mxGeometry x="460" y="490" width="140" height="90" as="geometry" />
        </mxCell>
        <mxCell id="dsVD0NSz5-Ame5MLzFzs-92" value="" style="shape=tableRow;horizontal=0;startSize=0;swimlaneHead=0;swimlaneBody=0;top=0;left=0;bottom=0;right=0;collapsible=0;dropTarget=0;fillColor=none;points=[[0,0.5],[1,0.5]];portConstraint=eastwest;strokeColor=inherit;fontSize=16;" vertex="1" parent="dsVD0NSz5-Ame5MLzFzs-91">
          <mxGeometry y="30" width="140" height="20" as="geometry" />
        </mxCell>
        <mxCell id="dsVD0NSz5-Ame5MLzFzs-93" value="1" style="shape=partialRectangle;html=1;whiteSpace=wrap;connectable=0;fillColor=none;top=0;left=0;bottom=0;right=0;overflow=hidden;pointerEvents=1;strokeColor=inherit;fontSize=11;" vertex="1" parent="dsVD0NSz5-Ame5MLzFzs-92">
          <mxGeometry width="31" height="20" as="geometry">
            <mxRectangle width="31" height="20" as="alternateBounds" />
          </mxGeometry>
        </mxCell>
        <mxCell id="dsVD0NSz5-Ame5MLzFzs-94" value="PO Item" style="shape=partialRectangle;html=1;whiteSpace=wrap;connectable=0;fillColor=none;top=0;left=0;bottom=0;right=0;align=left;spacingLeft=6;overflow=hidden;strokeColor=inherit;fontSize=11;" vertex="1" parent="dsVD0NSz5-Ame5MLzFzs-92">
          <mxGeometry x="31" width="109" height="20" as="geometry">
            <mxRectangle width="109" height="20" as="alternateBounds" />
          </mxGeometry>
        </mxCell>
        <mxCell id="dsVD0NSz5-Ame5MLzFzs-95" value="" style="shape=tableRow;horizontal=0;startSize=0;swimlaneHead=0;swimlaneBody=0;top=0;left=0;bottom=0;right=0;collapsible=0;dropTarget=0;fillColor=none;points=[[0,0.5],[1,0.5]];portConstraint=eastwest;strokeColor=inherit;fontSize=16;" vertex="1" parent="dsVD0NSz5-Ame5MLzFzs-91">
          <mxGeometry y="50" width="140" height="20" as="geometry" />
        </mxCell>
        <mxCell id="dsVD0NSz5-Ame5MLzFzs-96" value="2" style="shape=partialRectangle;html=1;whiteSpace=wrap;connectable=0;fillColor=none;top=0;left=0;bottom=0;right=0;overflow=hidden;strokeColor=inherit;fontSize=11;" vertex="1" parent="dsVD0NSz5-Ame5MLzFzs-95">
          <mxGeometry width="31" height="20" as="geometry">
            <mxRectangle width="31" height="20" as="alternateBounds" />
          </mxGeometry>
        </mxCell>
        <mxCell id="dsVD0NSz5-Ame5MLzFzs-97" value="PO Item Schedule" style="shape=partialRectangle;html=1;whiteSpace=wrap;connectable=0;fillColor=none;top=0;left=0;bottom=0;right=0;align=left;spacingLeft=6;overflow=hidden;strokeColor=inherit;fontSize=11;" vertex="1" parent="dsVD0NSz5-Ame5MLzFzs-95">
          <mxGeometry x="31" width="109" height="20" as="geometry">
            <mxRectangle width="109" height="20" as="alternateBounds" />
          </mxGeometry>
        </mxCell>
        <mxCell id="dsVD0NSz5-Ame5MLzFzs-98" value="" style="shape=tableRow;horizontal=0;startSize=0;swimlaneHead=0;swimlaneBody=0;top=0;left=0;bottom=0;right=0;collapsible=0;dropTarget=0;fillColor=none;points=[[0,0.5],[1,0.5]];portConstraint=eastwest;strokeColor=inherit;fontSize=16;" vertex="1" parent="dsVD0NSz5-Ame5MLzFzs-91">
          <mxGeometry y="70" width="140" height="20" as="geometry" />
        </mxCell>
        <mxCell id="dsVD0NSz5-Ame5MLzFzs-99" value="3" style="shape=partialRectangle;html=1;whiteSpace=wrap;connectable=0;fillColor=none;top=0;left=0;bottom=0;right=0;overflow=hidden;strokeColor=inherit;fontSize=11;" vertex="1" parent="dsVD0NSz5-Ame5MLzFzs-98">
          <mxGeometry width="31" height="20" as="geometry">
            <mxRectangle width="31" height="20" as="alternateBounds" />
          </mxGeometry>
        </mxCell>
        <mxCell id="dsVD0NSz5-Ame5MLzFzs-100" value="PO Header" style="shape=partialRectangle;html=1;whiteSpace=wrap;connectable=0;fillColor=none;top=0;left=0;bottom=0;right=0;align=left;spacingLeft=6;overflow=hidden;strokeColor=inherit;fontSize=11;" vertex="1" parent="dsVD0NSz5-Ame5MLzFzs-98">
          <mxGeometry x="31" width="109" height="20" as="geometry">
            <mxRectangle width="109" height="20" as="alternateBounds" />
          </mxGeometry>
        </mxCell>
        <mxCell id="dsVD0NSz5-Ame5MLzFzs-102" value="Y" style="text;html=1;align=center;verticalAlign=middle;resizable=0;points=[];autosize=1;strokeColor=none;fillColor=none;fontSize=11;" vertex="1" parent="1">
          <mxGeometry x="528" y="394" width="30" height="30" as="geometry" />
        </mxCell>
      </root>
    </mxGraphModel>
  </diagram>
</mxfile>
